gech.ufo
<glyph name="exclam" format="2">
  <advance width="800" height="800"/>
  <unicode hex="0021"/>
  <outline>
    <contour>
      <point x="351" y="819" type="line"/>
      <point x="449" y="819" type="line"/>
      <point x="449" y="143" type="line"/>
      <point x="351" y="143" type="line"/>
    </contour>
    <contour>
      <point x="449" y="819" type="move"/>
      <point x="449" y="143" type="line"/>
      <point x="351" y="143" type="line"/>
      <point x="351" y="819" type="line"/>
      <point x="449" y="819" type="line"/>
      <point x="351" y="819" type="line"/>
      <point x="351" y="143" type="line"/>
      <point x="449" y="143" type="line"/>
    </contour>
    <contour>
      <point x="351" y="-21" type="line"/>
      <point x="449" y="-21" type="line"/>
      <point x="449" y="-205" type="line"/>
      <point x="351" y="-205" type="line"/>
    </contour>
  </outline>
</glyph>
<glyph name="quotedbl" format="2">
  <advance width="800" height="800"/>
  <unicode hex="0022"/>
  <outline>
    <contour>
      <point x="414" y="819" type="line"/>
      <point x="474" y="819" type="line"/>
      <point x="474" y="635" type="line"/>
      <point x="414" y="635" type="line"/>
    </contour>
    <contour>
      <point x="326" y="819" type="line"/>
      <point x="386" y="819" type="line"/>
      <point x="386" y="635" type="line"/>
      <point x="326" y="635" type="line"/>
    </contour>
  </outline>
</glyph>
<glyph name="numbersign" format="2">
  <advance width="800" height="800"/>
  <unicode hex="0023"/>
  <outline>
    <contour>
      <point x="296" y="463" type="line"/>
      <point x="296" y="366" type="line"/>
      <point x="483" y="366" type="line"/>
      <point x="483" y="463" type="line"/>
    </contour>
    <contour>
      <point x="483" y="716" type="line"/>
      <point x="581" y="716" type="line"/>
      <point x="581" y="463" type="line"/>
      <point x="830" y="463" type="line"/>
      <point x="830" y="364" type="line"/>
      <point x="581" y="364" type="line"/>
      <point x="581" y="178" type="line"/>
      <point x="830" y="178" type="line"/>
      <point x="830" y="80" type="line"/>
      <point x="580" y="80" type="line"/>
      <point x="581" y="-143" type="line"/>
      <point x="483" y="-143" type="line"/>
      <point x="483" y="80" type="line"/>
      <point x="296" y="80" type="line"/>
      <point x="297" y="-143" type="line"/>
      <point x="199" y="-143" type="line"/>
      <point x="199" y="80" type="line"/>
      <point x="-30" y="80" type="line"/>
      <point x="-30" y="178" type="line"/>
      <point x="199" y="178" type="line"/>
      <point x="198" y="364" type="line"/>
      <point x="-30" y="364" type="line"/>
      <point x="-30" y="463" type="line"/>
      <point x="199" y="463" type="line"/>
      <point x="199" y="716" type="line"/>
      <point x="296" y="716" type="line"/>
      <point x="296.471" y="463" type="line"/>
      <point x="297" y="178" type="line"/>
      <point x="483" y="178" type="line"/>
    </contour>
  </outline>
</glyph>
<glyph name="dollar" format="2">
  <advance width="800" height="800"/>
  <unicode hex="0024"/>
  <outline>
    <contour>
      <point x="350" y="701" type="line"/>
      <point x="448" y="701" type="line"/>
      <point x="448" y="631" type="line"/>
      <point x="661" y="631" type="line"/>
      <point x="660" y="533" type="line"/>
      <point x="237" y="533" type="line"/>
      <point x="237" y="347" type="line"/>
      <point x="661" y="347" type="line"/>
      <point x="661" y="-30" type="line"/>
      <point x="448" y="-30" type="line"/>
      <point x="448" y="-100" type="line"/>
      <point x="350" y="-100" type="line"/>
      <point x="350" y="-30" type="line"/>
      <point x="142" y="-30" type="line"/>
      <point x="142" y="68" type="line"/>
      <point x="563" y="68" type="line"/>
      <point x="563" y="249" type="line"/>
      <point x="139" y="249" type="line"/>
      <point x="139" y="632" type="line"/>
      <point x="350" y="632" type="line"/>
    </contour>
  </outline>
</glyph>
<glyph name="percent" format="2">
  <advance width="800" height="800"/>
  <unicode hex="0025"/>
  <outline>
    <contour>
      <point x="402" y="200" type="line"/>
      <point x="509" y="307" type="line"/>
      <point x="611" y="205" type="line"/>
      <point x="503" y="98" type="line"/>
    </contour>
    <contour>
      <point x="722" y="711" type="line"/>
      <point x="791" y="642" type="line"/>
      <point x="77" y="-72" type="line"/>
      <point x="9" y="-3" type="line"/>
    </contour>
    <contour>
      <point x="154" y="456" type="line"/>
      <point x="262" y="564" type="line"/>
      <point x="363" y="461" type="line"/>
      <point x="256" y="354" type="line"/>
    </contour>
  </outline>
</glyph>
<glyph name="ampersand" format="2">
  <advance width="800" height="800"/>
  <unicode hex="0026"/>
  <outline>
    <contour>
      <point x="620.5" y="727" type="line"/>
      <point x="620.5" y="629" type="line"/>
      <point x="247.5" y="628" type="line"/>
      <point x="247.5" y="432" type="line"/>
      <point x="685.5" y="431" type="line"/>
      <point x="686.5" y="333" type="line"/>
      <point x="245.5" y="333" type="line"/>
      <point x="570.5" y="9" type="line"/>
      <point x="461.5" y="-22" type="line"/>
      <point x="174.5" y="267" type="line"/>
      <point x="173.5" y="-22" type="line"/>
      <point x="461.5" y="-22" type="line"/>
      <point x="570.5" y="9" type="line"/>
      <point x="588.5" y="26" type="line"/>
      <point x="723.5" y="26" type="line"/>
      <point x="723.5" y="23" type="line"/>
      <point x="641.5" y="-60" type="line"/>
      <point x="723.5" y="-143" type="line"/>
      <point x="584.5" y="-143" type="line"/>
      <point x="562.5" y="-120" type="line"/>
      <point x="76.5" y="-120" type="line"/>
      <point x="76.5" y="431" type="line"/>
      <point x="149.5" y="431" type="line"/>
      <point x="149.5" y="727" type="line"/>
    </contour>
  </outline>
</glyph>
<glyph name="quotesingle" format="2">
  <advance width="800" height="800"/>
  <unicode hex="0027"/>
  <outline>
    <contour>
      <point x="370" y="635" type="line"/>
      <point x="370" y="819" type="line"/>
      <point x="430" y="819" type="line"/>
      <point x="430" y="635" type="line"/>
    </contour>
  </outline>
</glyph>
<glyph name="parenleft" format="2">
  <advance width="800" height="800"/>
  <unicode hex="0028"/>
  <outline>
    <contour>
      <point x="461" y="762" type="line"/>
      <point x="579" y="762" type="line"/>
      <point x="579" y="-177" type="line"/>
      <point x="460" y="-177" type="line"/>
      <point x="460" y="-22" type="line"/>
      <point x="221" y="-21" type="line"/>
      <point x="222" y="592" type="line"/>
      <point x="460" y="592" type="line"/>
    </contour>
  </outline>
</glyph>
<glyph name="parenright" format="2">
  <advance width="800" height="800"/>
  <unicode hex="0029"/>
  <outline>
    <contour>
      <point x="221.5" y="762" type="line"/>
      <point x="339.5" y="762" type="line"/>
      <point x="339.5" y="591" type="line"/>
      <point x="578.5" y="591" type="line"/>
      <point x="578.5" y="-21" type="line"/>
      <point x="339.5" y="-21" type="line"/>
      <point x="339.5" y="-177" type="line"/>
      <point x="221.5" y="-177" type="line"/>
    </contour>
  </outline>
</glyph>
<glyph name="asterisk" format="2">
  <advance width="800" height="800"/>
  <unicode hex="002A"/>
  <outline>
    <contour>
      <point x="362" y="818" type="move"/>
      <point x="424" y="820" type="line"/>
    </contour>
    <contour>
      <point x="362" y="818" type="line"/>
      <point x="424" y="820" type="line"/>
      <point x="424" y="763" type="line"/>
      <point x="472" y="810" type="line"/>
      <point x="515" y="765" type="line"/>
      <point x="463" y="712" type="line"/>
      <point x="548" y="712" type="line"/>
      <point x="549" y="649" type="line"/>
      <point x="472" y="649" type="line"/>
      <point x="521" y="600" type="line"/>
      <point x="476" y="555" type="line"/>
      <point x="424" y="608" type="line"/>
      <point x="424" y="523" type="line"/>
      <point x="361" y="523" type="line"/>
      <point x="361" y="610" type="line"/>
      <point x="305" y="554" type="line"/>
      <point x="261" y="599" type="line"/>
      <point x="312" y="649" type="line"/>
      <point x="251" y="649" type="line"/>
      <point x="251" y="712" type="line"/>
      <point x="320" y="712" type="line"/>
      <point x="266" y="766" type="line"/>
      <point x="310" y="811" type="line"/>
      <point x="361" y="760" type="line"/>
    </contour>
  </outline>
</glyph>
<glyph name="plus" format="2">
  <advance width="800" height="800"/>
  <unicode hex="002B"/>
  <outline>
    <contour>
      <point x="344" y="578" type="line"/>
      <point x="441" y="578" type="line"/>
      <point x="440" y="381" type="line"/>
      <point x="652" y="381" type="line"/>
      <point x="652" y="283" type="line"/>
      <point x="440" y="283" type="line"/>
      <point x="439" y="107" type="line"/>
      <point x="340" y="107" type="line"/>
      <point x="341" y="283" type="line"/>
      <point x="148" y="284" type="line"/>
      <point x="148" y="380" type="line"/>
      <point x="340" y="381" type="line"/>
    </contour>
  </outline>
</glyph>
<glyph name="comma" format="2">
  <advance width="800" height="800"/>
  <unicode hex="002C"/>
  <outline>
    <contour>
      <point x="388.5" y="25" type="line"/>
      <point x="486.5" y="25" type="line"/>
      <point x="486.5" y="-205" type="line"/>
      <point x="313.5" y="-205" type="line"/>
      <point x="313.5" y="-107" type="line"/>
      <point x="388.5" y="-107" type="line"/>
    </contour>
  </outline>
</glyph>
<glyph name="hyphen" format="2">
  <advance width="800" height="800"/>
  <unicode hex="002D"/>
  <outline>
    <contour>
      <point x="62" y="355" type="line"/>
      <point x="738" y="355" type="line"/>
      <point x="738" y="257" type="line"/>
      <point x="62" y="257" type="line"/>
    </contour>
  </outline>
</glyph>
<glyph name="period" format="2">
  <advance width="800" height="800"/>
  <unicode hex="002E"/>
  <outline>
    <contour>
      <point x="349.5" y="-107" type="line"/>
      <point x="450.5" y="-107" type="line"/>
      <point x="450.5" y="-205" type="line"/>
      <point x="349.5" y="-205" type="line"/>
    </contour>
  </outline>
</glyph>
<glyph name="slash" format="2">
  <advance width="800" height="800"/>
  <unicode hex="002F"/>
  <outline>
    <contour>
      <point x="620" y="762" type="line"/>
      <point x="703" y="711" type="line"/>
      <point x="180" y="-149" type="line"/>
      <point x="97" y="-100" type="line"/>
    </contour>
  </outline>
</glyph>
<glyph name="zero" format="2">
  <advance width="800" height="800"/>
  <unicode hex="0030"/>
  <outline>
    <contour>
      <point x="1" y="817" type="move"/>
    </contour>
    <contour>
      <point x="1" y="817" type="line"/>
      <point x="799" y="817" type="line"/>
      <point x="799" y="-205" type="line"/>
      <point x="1" y="-205" type="line"/>
      <point x="99" y="-108" type="line"/>
      <point x="701" y="-108" type="line"/>
      <point x="701" y="720" type="line"/>
      <point x="98" y="720" type="line"/>
      <point x="99" y="-108" type="line"/>
      <point x="1" y="-205" type="line"/>
    </contour>
  </outline>
</glyph>
<glyph name="one" format="2">
  <advance width="800" height="800"/>
  <unicode hex="0031"/>
  <outline>
    <contour>
      <point x="140" y="817" type="line"/>
      <point x="438" y="818" type="line"/>
      <point x="438" y="-108" type="line"/>
      <point x="799" y="-108" type="line"/>
      <point x="799" y="-205" type="line"/>
      <point x="1" y="-205" type="line"/>
      <point x="1" y="-108" type="line"/>
      <point x="340" y="-108" type="line"/>
      <point x="340" y="720" type="line"/>
      <point x="140" y="720" type="line"/>
    </contour>
  </outline>
</glyph>
<glyph name="two" format="2">
  <advance width="800" height="800"/>
  <unicode hex="0032"/>
  <outline>
    <contour>
      <point x="181.5" y="527" type="line"/>
      <point x="181.5" y="819" type="line"/>
      <point x="618.5" y="818" type="line"/>
      <point x="618.5" y="558" type="line"/>
      <point x="278.5" y="-29" type="line"/>
      <point x="278.5" y="-108" type="line"/>
      <point x="520.5" y="-108" type="line"/>
      <point x="520.5" y="85" type="line"/>
      <point x="618.5" y="85" type="line"/>
      <point x="618.5" y="-205" type="line"/>
      <point x="181.5" y="-205" type="line"/>
      <point x="181.5" y="23" type="line"/>
      <point x="520.5" y="585" type="line"/>
      <point x="520.5" y="720" type="line"/>
      <point x="279.5" y="720" type="line"/>
      <point x="279.5" y="527" type="line"/>
    </contour>
  </outline>
</glyph>
<glyph name="three" format="2">
  <advance width="800" height="800"/>
  <unicode hex="0033"/>
  <outline>
    <contour>
      <point x="144" y="624" type="line"/>
      <point x="144" y="819" type="line"/>
      <point x="655" y="819" type="line"/>
      <point x="656" y="-205" type="line"/>
      <point x="144" y="-205" type="line"/>
      <point x="144" y="-10" type="line"/>
      <point x="227" y="-10" type="line"/>
      <point x="227" y="-107" type="line"/>
      <point x="559" y="-107" type="line"/>
      <point x="558" y="255" type="line"/>
      <point x="312" y="256" type="line"/>
      <point x="311" y="160" type="line"/>
      <point x="228" y="160" type="line"/>
      <point x="228" y="449" type="line"/>
      <point x="313" y="448" type="line"/>
      <point x="313" y="355" type="line"/>
      <point x="558" y="355" type="line"/>
      <point x="559" y="722" type="line"/>
      <point x="228" y="721" type="line"/>
      <point x="227" y="624" type="line"/>
    </contour>
  </outline>
</glyph>
<glyph name="four" format="2">
  <advance width="800" height="800"/>
  <unicode hex="0034"/>
  <outline>
    <contour>
      <point x="458.5" y="819" type="line"/>
      <point x="570.5" y="819" type="line"/>
      <point x="569.5" y="354" type="line"/>
      <point x="657.5" y="354" type="line"/>
      <point x="657.5" y="256" type="line"/>
      <point x="570.5" y="256" type="line"/>
      <point x="570.5" y="-205" type="line"/>
      <point x="473.5" y="-205" type="line"/>
      <point x="472.5" y="256" type="line"/>
      <point x="142.5" y="256" type="line"/>
      <point x="142.5" y="342" type="line"/>
      <point x="275.5" y="354" type="line"/>
      <point x="471.5" y="354" type="line"/>
      <point x="472.5" y="652" type="line"/>
      <point x="275.5" y="354" type="line"/>
      <point x="142.5" y="342" type="line"/>
    </contour>
  </outline>
</glyph>
<glyph name="five" format="2">
  <advance width="800" height="800"/>
  <unicode hex="0035"/>
  <outline>
    <contour>
      <point x="617" y="586" type="line"/>
      <point x="520" y="586" type="line"/>
      <point x="520" y="720" type="line"/>
      <point x="279" y="720" type="line"/>
      <point x="279" y="369" type="line"/>
      <point x="619" y="369" type="line"/>
      <point x="618" y="-205" type="line"/>
      <point x="181" y="-204" type="line"/>
      <point x="181" y="-29" type="line"/>
      <point x="278" y="-29" type="line"/>
      <point x="278" y="-108" type="line"/>
      <point x="520" y="-108" type="line"/>
      <point x="520" y="270" type="line"/>
      <point x="181" y="270" type="line"/>
      <point x="181" y="819" type="line"/>
      <point x="618" y="818" type="line"/>
    </contour>
  </outline>
</glyph>
<glyph name="six" format="2">
  <advance width="800" height="800"/>
  <unicode hex="0036"/>
  <outline>
    <contour>
      <point x="618.5" y="819" type="line"/>
      <point x="618.5" y="720" type="line"/>
      <point x="279.5" y="719" type="line"/>
      <point x="279.5" y="277" type="line"/>
      <point x="618.5" y="277" type="line"/>
      <point x="520.5" y="179" type="line"/>
      <point x="279.5" y="179" type="line"/>
      <point x="279.5" y="-108" type="line"/>
      <point x="520.5" y="-108" type="line"/>
      <point x="520.5" y="179" type="line"/>
      <point x="618.5" y="277" type="line"/>
      <point x="618.5" y="-205" type="line"/>
      <point x="181.5" y="-205" type="line"/>
      <point x="181.5" y="819" type="line"/>
    </contour>
  </outline>
</glyph>
<glyph name="seven" format="2">
  <advance width="800" height="800"/>
  <unicode hex="0037"/>
  <outline>
    <contour>
      <point x="618.5" y="-205" type="line"/>
      <point x="520.5" y="-205" type="line"/>
      <point x="520.5" y="720" type="line"/>
      <point x="279.5" y="720" type="line"/>
      <point x="279.5" y="527" type="line"/>
      <point x="181.5" y="527" type="line"/>
      <point x="181.5" y="819" type="line"/>
      <point x="618.5" y="819" type="line"/>
    </contour>
  </outline>
</glyph>
<glyph name="nine" format="2">
  <advance width="800" height="800"/>
  <unicode hex="0039"/>
  <outline>
    <contour>
      <point x="181.5" y="-106" type="line"/>
      <point x="519.5" y="-106" type="line"/>
      <point x="520.5" y="720" type="line"/>
      <point x="278.5" y="720" type="line"/>
      <point x="278.5" y="348" type="line"/>
      <point x="519.5" y="349" type="line"/>
      <point x="519.5" y="249" type="line"/>
      <point x="181.5" y="250" type="line"/>
      <point x="181.5" y="819" type="line"/>
      <point x="617.5" y="819" type="line"/>
      <point x="618.5" y="-205" type="line"/>
      <point x="181.5" y="-205" type="line"/>
    </contour>
  </outline>
</glyph>
<glyph name="colon" format="2">
  <advance width="800" height="800"/>
  <unicode hex="003A"/>
  <outline>
    <contour>
      <point x="349.5" y="316" type="line"/>
      <point x="450.5" y="316" type="line"/>
      <point x="450.5" y="218" type="line"/>
      <point x="349.5" y="218" type="line"/>
    </contour>
    <contour>
      <point x="349.5" y="537" type="line"/>
      <point x="450.5" y="537" type="line"/>
      <point x="450.5" y="439" type="line"/>
      <point x="349.5" y="439" type="line"/>
    </contour>
  </outline>
</glyph>
<glyph name="semicolon" format="2">
  <advance width="800" height="800"/>
  <unicode hex="003B"/>
  <outline>
    <contour>
      <point x="313.5" y="182" type="line"/>
      <point x="385.5" y="182" type="line"/>
      <point x="385.5" y="316" type="line"/>
      <point x="486.5" y="316" type="line"/>
      <point x="486.5" y="84" type="line"/>
      <point x="313.5" y="84" type="line"/>
    </contour>
    <contour>
      <point x="385.5" y="537" type="line"/>
      <point x="486.5" y="537" type="line"/>
      <point x="486.5" y="439" type="line"/>
      <point x="385.5" y="439" type="line"/>
    </contour>
  </outline>
</glyph>
<glyph name="less" format="2">
  <advance width="800" height="800"/>
  <unicode hex="003C"/>
  <outline>
    <contour>
      <point x="244.5" y="312" type="line"/>
      <point x="553.5" y="482" type="line"/>
      <point x="553.5" y="352" type="line"/>
      <point x="380.5" y="256" type="line"/>
      <point x="555.5" y="197" type="line"/>
      <point x="555.5" y="78" type="line"/>
      <point x="244.5" y="181" type="line"/>
    </contour>
  </outline>
</glyph>
<glyph name="equal" format="2">
  <advance width="800" height="800"/>
  <unicode hex="003D"/>
  <outline>
    <contour>
      <point x="173" y="251" type="line"/>
      <point x="627" y="251" type="line"/>
      <point x="627" y="150" type="line"/>
      <point x="173" y="150" type="line"/>
    </contour>
    <contour>
      <point x="175" y="458" type="line"/>
      <point x="626" y="458" type="line"/>
      <point x="626" y="358" type="line"/>
      <point x="174" y="358" type="line"/>
    </contour>
  </outline>
</glyph>
<glyph name="greater" format="2">
  <advance width="800" height="800"/>
  <unicode hex="003E"/>
  <outline>
    <contour>
      <point x="558.5" y="320" type="line"/>
      <point x="560.5" y="189" type="line"/>
      <point x="239.5" y="83" type="line"/>
      <point x="240.5" y="204" type="line"/>
      <point x="423.5" y="264" type="line"/>
      <point x="249.5" y="361" type="line"/>
      <point x="249.5" y="491" type="line"/>
    </contour>
  </outline>
</glyph>
<glyph name="question" format="2">
  <advance width="800" height="800"/>
  <unicode hex="003F"/>
  <outline>
    <contour>
      <point x="332" y="58" type="line"/>
      <point x="432" y="57" type="line"/>
      <point x="432" y="-61" type="line"/>
      <point x="331" y="-61" type="line"/>
    </contour>
    <contour>
      <point x="173" y="570" type="line"/>
      <point x="173" y="790" type="line"/>
      <point x="627" y="790" type="line"/>
      <point x="626" y="234" type="line"/>
      <point x="432" y="235" type="line"/>
      <point x="432" y="116" type="line"/>
      <point x="332" y="115" type="line"/>
      <point x="331" y="335" type="line"/>
      <point x="526" y="336" type="line"/>
      <point x="528" y="688" type="line"/>
      <point x="275" y="688" type="line"/>
      <point x="274" y="570" type="line"/>
    </contour>
  </outline>
</glyph>
<glyph name="at" format="2">
  <advance width="800" height="800"/>
  <unicode hex="0040"/>
  <outline>
    <contour>
      <point x="727.5" y="-117" type="line"/>
      <point x="71.5" y="-117" type="line"/>
      <point x="73.5" y="790" type="line"/>
      <point x="727.5" y="790" type="line"/>
      <point x="728.5" y="168" type="line"/>
      <point x="200.5" y="168" type="line"/>
      <point x="199.5" y="606" type="line"/>
      <point x="628.5" y="606" type="line"/>
      <point x="628.5" y="689" type="line"/>
      <point x="171.5" y="692" type="line"/>
      <point x="171.5" y="-17" type="line"/>
      <point x="727.5" y="-16" type="line"/>
    </contour>
  </outline>
</glyph>
<glyph name="A" format="2">
  <advance width="1177" height="1177"/>
  <unicode hex="0041"/>
  <outline>
    <contour>
      <point x="76.5" y="-205" type="line"/>
      <point x="76.5" y="721" type="line"/>
      <point x="173.5" y="721" type="line"/>
      <point x="174.5" y="94" type="line"/>
      <point x="1001.5" y="94" type="line"/>
      <point x="1001.5" y="-4" type="line"/>
      <point x="174.5" y="-4" type="line"/>
      <point x="174.5" y="-205" type="line"/>
    </contour>
    <contour>
      <point x="76.5" y="819" type="line"/>
      <point x="1100.5" y="819" type="line"/>
      <point x="1100.5" y="-205" type="line"/>
      <point x="1001.5" y="-205" type="line"/>
      <point x="1001.5" y="721" type="line"/>
      <point x="693.167" y="721"/>
      <point x="384.833" y="721"/>
      <point x="76.5" y="721" type="curve"/>
    </contour>
  </outline>
</glyph>
<glyph name="A" format="2">
  <advance width="800" height="800"/>
  <unicode hex="0041"/>
  <outline>
    <contour>
      <point x="9.5" y="-200" type="line"/>
      <point x="9.5" y="726" type="line"/>
      <point x="106.5" y="726" type="line"/>
      <point x="107.5" y="99" type="line"/>
      <point x="691.5" y="90" type="line"/>
      <point x="691.5" y="-8" type="line"/>
      <point x="107.5" y="1" type="line"/>
      <point x="107.5" y="-200" type="line"/>
    </contour>
    <contour>
      <point x="9.5" y="824" type="line"/>
      <point x="790.5" y="815" type="line"/>
      <point x="790.5" y="-209" type="line"/>
      <point x="691.5" y="-209" type="line"/>
      <point x="691.5" y="717" type="line"/>
      <point x="383.167" y="717"/>
      <point x="318.833" y="719"/>
      <point x="10.5" y="719" type="curve"/>
    </contour>
  </outline>
</glyph>
<glyph name="B" format="2">
  <advance width="800" height="800"/>
  <unicode hex="0042"/>
  <outline>
    <contour>
      <point x="522.5" y="1194" type="move"/>
    </contour>
    <contour>
      <point x="44.5" y="-106" type="line"/>
      <point x="44.5" y="721" type="line"/>
      <point x="142.5" y="721" type="line"/>
      <point x="142.5" y="-106" type="line"/>
    </contour>
    <contour>
      <point x="44.5" y="819" type="line"/>
      <point x="755.5" y="819" type="line"/>
      <point x="755.5" y="-205" type="line"/>
      <point x="44.5" y="-205" type="line"/>
      <point x="44.5" y="-106" type="line"/>
      <point x="352.833" y="-106"/>
      <point x="348.167" y="-106"/>
      <point x="656.5" y="-106" type="curve"/>
      <point x="656.5" y="257" type="line"/>
      <point x="142.5" y="257" type="line"/>
      <point x="142.5" y="355" type="line"/>
      <point x="656.5" y="355" type="line"/>
      <point x="656.5" y="721" type="line"/>
      <point x="348.167" y="721"/>
      <point x="352.833" y="721"/>
      <point x="44.5" y="721" type="curve"/>
    </contour>
  </outline>
</glyph>
<glyph name="C" format="2">
  <advance width="800" height="800"/>
  <unicode hex="0043"/>
  <outline>
    <contour>
      <point x="674.5" y="-51" type="line"/>
      <point x="773.5" y="-51" type="line"/>
      <point x="773.5" y="-205" type="line"/>
      <point x="26.5" y="-205" type="line"/>
      <point x="26.5" y="819" type="line"/>
      <point x="773.5" y="819" type="line"/>
      <point x="773.5" y="681" type="line"/>
      <point x="674.5" y="681" type="line"/>
      <point x="674.5" y="721" type="line"/>
      <point x="124.5" y="721" type="line"/>
      <point x="124.5" y="-106" type="line"/>
      <point x="674.5" y="-106" type="line"/>
    </contour>
  </outline>
</glyph>
<glyph name="D" format="2">
  <advance width="800" height="800"/>
  <unicode hex="0044"/>
  <outline>
    <contour>
      <point x="73.5" y="-106" type="line"/>
      <point x="73.5" y="726" type="line"/>
      <point x="171.5" y="729" type="line"/>
      <point x="171.5" y="-106" type="line"/>
    </contour>
    <contour>
      <point x="73.5" y="819" type="line"/>
      <point x="726.5" y="819" type="line"/>
      <point x="726.5" y="-205" type="line"/>
      <point x="73.5" y="-205" type="line"/>
      <point x="73.5" y="-106" type="line"/>
      <point x="381.833" y="-106"/>
      <point x="319.167" y="-106"/>
      <point x="627.5" y="-106" type="curve"/>
      <point x="627.5" y="721" type="line"/>
      <point x="171.5" y="721" type="line"/>
      <point x="73.5" y="722" type="line"/>
    </contour>
  </outline>
</glyph>
<glyph name="E" format="2">
  <advance width="800" height="800"/>
  <unicode hex="0045"/>
  <outline>
    <contour>
      <point x="645.5" y="137" type="line"/>
      <point x="744.5" y="137" type="line"/>
      <point x="744.5" y="-205" type="line"/>
      <point x="55.5" y="-205" type="line"/>
      <point x="55.5" y="819" type="line"/>
      <point x="744.5" y="819" type="line"/>
      <point x="744.5" y="540" type="line"/>
      <point x="645.5" y="540" type="line"/>
      <point x="645.5" y="721" type="line"/>
      <point x="153.5" y="721" type="line"/>
      <point x="153.5" y="397" type="line"/>
      <point x="490.5" y="397" type="line"/>
      <point x="490.5" y="242" type="line"/>
      <point x="153.5" y="242" type="line"/>
      <point x="153.5" y="-106" type="line"/>
      <point x="645.5" y="-106" type="line"/>
    </contour>
  </outline>
</glyph>
<glyph name="F" format="2">
  <advance width="800" height="800"/>
  <unicode hex="0046"/>
  <outline>
    <contour>
      <point x="115.5" y="-205" type="line"/>
      <point x="115.5" y="819" type="line"/>
      <point x="684.5" y="819" type="line"/>
      <point x="684.5" y="644" type="line"/>
      <point x="585.5" y="644" type="line"/>
      <point x="585.5" y="721" type="line"/>
      <point x="213.5" y="721" type="line"/>
      <point x="213.5" y="381" type="line"/>
      <point x="438.5" y="381" type="line"/>
      <point x="438.5" y="458" type="line"/>
      <point x="536.5" y="458" type="line"/>
      <point x="536.5" y="283" type="line"/>
      <point x="215.5" y="283" type="line"/>
      <point x="214.5" y="-106" type="line"/>
      <point x="214.5" y="-205" type="line"/>
    </contour>
  </outline>
</glyph>
<glyph name="G" format="2">
  <advance width="800" height="800"/>
  <unicode hex="0047"/>
  <outline>
    <contour>
      <point x="742" y="819" type="line"/>
      <point x="742" y="721" type="line"/>
      <point x="156" y="721" type="line"/>
      <point x="156" y="-106" type="line"/>
      <point x="643" y="-106" type="line"/>
      <point x="643" y="205" type="line"/>
      <point x="531" y="205" type="line"/>
      <point x="531" y="303" type="line"/>
      <point x="742" y="303" type="line"/>
      <point x="742" y="-205" type="line"/>
      <point x="58" y="-205" type="line"/>
      <point x="58" y="819" type="line"/>
    </contour>
  </outline>
</glyph>
<glyph name="H" format="2">
  <advance width="800" height="800"/>
  <unicode hex="0048"/>
  <outline>
    <contour>
      <point x="69.5" y="819" type="line"/>
      <point x="167.5" y="819" type="line"/>
      <point x="167.5" y="212" type="line"/>
      <point x="631.5" y="212" type="line"/>
      <point x="631.5" y="819" type="line"/>
      <point x="730.5" y="819" type="line"/>
      <point x="730.5" y="-205" type="line"/>
      <point x="631.5" y="-205" type="line"/>
      <point x="631.5" y="114" type="line"/>
      <point x="167.5" y="114" type="line"/>
      <point x="167.5" y="-205" type="line"/>
      <point x="69.5" y="-205" type="line"/>
    </contour>
  </outline>
</glyph>
<glyph name="I" format="2">
  <advance width="800" height="800"/>
  <unicode hex="0049"/>
  <outline>
    <contour>
      <point x="129.5" y="819" type="line"/>
      <point x="670.5" y="819" type="line"/>
      <point x="670.5" y="721" type="line"/>
      <point x="438.5" y="721" type="line"/>
      <point x="438.5" y="-106" type="line"/>
      <point x="670.5" y="-106" type="line"/>
      <point x="670.5" y="-205" type="line"/>
      <point x="129.5" y="-205" type="line"/>
      <point x="129.5" y="-105" type="line"/>
      <point x="340.5" y="-105" type="line"/>
      <point x="340.5" y="721" type="line"/>
      <point x="129.5" y="721" type="line"/>
    </contour>
  </outline>
</glyph>
<glyph name="J" format="2">
  <advance width="800" height="800"/>
  <unicode hex="004A"/>
  <outline>
    <contour>
      <point x="95" y="-105" type="line"/>
      <point x="606" y="-105" type="line"/>
      <point x="607" y="819" type="line"/>
      <point x="705" y="819" type="line"/>
      <point x="705" y="-205" type="line"/>
      <point x="95" y="-205" type="line"/>
    </contour>
  </outline>
</glyph>
<glyph name="K" format="2">
  <advance width="800" height="800"/>
  <unicode hex="004B"/>
  <outline>
    <contour>
      <point x="84.5" y="819" type="line"/>
      <point x="182.5" y="819" type="line"/>
      <point x="182.5" y="421" type="line"/>
      <point x="616.5" y="421" type="line"/>
      <point x="616.5" y="819" type="line"/>
      <point x="715.5" y="819" type="line"/>
      <point x="715.5" y="323" type="line"/>
      <point x="314.5" y="323" type="line"/>
      <point x="314.5" y="-114" type="line"/>
      <point x="216.5" y="-114" type="line"/>
      <point x="216.5" y="323" type="line"/>
      <point x="182.5" y="323" type="line"/>
      <point x="182.5" y="-205" type="line"/>
      <point x="84.5" y="-205" type="line"/>
    </contour>
  </outline>
</glyph>
<glyph name="L" format="2">
  <advance width="800" height="800"/>
  <unicode hex="004C"/>
  <outline>
    <contour>
      <point x="96" y="819" type="line"/>
      <point x="194" y="819" type="line"/>
      <point x="193" y="-107" type="line"/>
      <point x="704" y="-107" type="line"/>
      <point x="704" y="-205" type="line"/>
      <point x="96" y="-205" type="line"/>
    </contour>
  </outline>
</glyph>
<glyph name="M" format="2">
  <advance width="800" height="800"/>
  <unicode hex="004D"/>
  <outline>
    <contour>
      <point x="81" y="-205" type="line"/>
      <point x="81" y="819" type="line"/>
      <point x="719" y="819" type="line"/>
      <point x="719" y="-205" type="line"/>
      <point x="621" y="-205" type="line"/>
      <point x="621" y="721" type="line"/>
      <point x="439" y="721" type="line"/>
      <point x="440" y="-205" type="line"/>
      <point x="342" y="-205" type="line"/>
      <point x="342" y="721" type="line"/>
      <point x="178" y="721" type="line"/>
      <point x="179" y="-205" type="line"/>
    </contour>
  </outline>
</glyph>
<glyph name="N" format="2">
  <advance width="800" height="800"/>
  <unicode hex="004E"/>
  <outline>
    <contour>
      <point x="40.5" y="-205" type="line"/>
      <point x="40.5" y="819" type="line"/>
      <point x="759.5" y="819" type="line"/>
      <point x="759.5" y="-205" type="line"/>
      <point x="661.5" y="-205" type="line"/>
      <point x="661.5" y="721" type="line"/>
      <point x="138.5" y="720" type="line"/>
      <point x="138.5" y="-205" type="line"/>
    </contour>
  </outline>
</glyph>
<glyph name="O" format="2">
  <advance width="1024" height="1024"/>
  <unicode hex="004F"/>
  <outline>
    <contour>
      <point x="351" y="-107" type="line"/>
      <point x="775" y="-107" type="line"/>
      <point x="775" y="169"/>
      <point x="775" y="445"/>
      <point x="775" y="721" type="curve"/>
      <point x="249" y="721" type="line"/>
      <point x="248" y="-75" type="line"/>
      <point x="151" y="-75" type="line"/>
      <point x="151" y="819" type="line"/>
      <point x="873" y="819" type="line"/>
      <point x="873" y="-205" type="line"/>
      <point x="151" y="-205" type="line"/>
      <point x="151" y="-75" type="line"/>
      <point x="248" y="-75" type="line"/>
      <point x="691" y="721" type="line"/>
      <point x="775" y="721" type="line"/>
      <point x="775" y="669" type="line"/>
    </contour>
  </outline>
</glyph>
<glyph name="P" format="2">
  <advance width="800" height="800"/>
  <unicode hex="0050"/>
  <outline>
    <contour>
      <point x="142" y="-205" type="line"/>
      <point x="142" y="819" type="line"/>
      <point x="658" y="819" type="line"/>
      <point x="658" y="-10" type="line"/>
      <point x="240" y="-10" type="line"/>
      <point x="240" y="87" type="line"/>
      <point x="561" y="87" type="line"/>
      <point x="561" y="723" type="line"/>
      <point x="240" y="721" type="line"/>
      <point x="240" y="412.333"/>
      <point x="240" y="103.667"/>
      <point x="240" y="-205" type="curve"/>
    </contour>
  </outline>
</glyph>
<glyph name="Q" format="2">
  <advance width="800" height="800"/>
  <unicode hex="0051"/>
  <outline>
    <contour>
      <point x="110" y="819" type="line"/>
      <point x="690" y="819" type="line"/>
      <point x="690" y="-10" type="line"/>
      <point x="353" y="-10" type="line"/>
      <point x="353" y="-107" type="line"/>
      <point x="687" y="-107" type="line"/>
      <point x="687" y="-205" type="line"/>
      <point x="256" y="-205" type="line"/>
      <point x="256" y="88" type="line"/>
      <point x="592" y="88" type="line"/>
      <point x="592" y="721" type="line"/>
      <point x="208" y="721" type="line"/>
      <point x="208" y="88" type="line"/>
      <point x="256" y="88" type="line"/>
      <point x="256" y="-10" type="line"/>
      <point x="110" y="-10" type="line"/>
    </contour>
  </outline>
</glyph>
<glyph name="R" format="2">
  <advance width="800" height="800"/>
  <unicode hex="0052"/>
  <outline>
    <contour>
      <point x="121.5" y="-205" type="line"/>
      <point x="121.5" y="819" type="line"/>
      <point x="678.5" y="819" type="line"/>
      <point x="678.5" y="-10" type="line"/>
      <point x="444.5" y="-10" type="line"/>
      <point x="445.5" y="-205" type="line"/>
      <point x="347.5" y="-205" type="line"/>
      <point x="347.5" y="-10" type="line"/>
      <point x="219.5" y="-10" type="line"/>
      <point x="219.5" y="87" type="line"/>
      <point x="580.5" y="88" type="line"/>
      <point x="580.5" y="722" type="line"/>
      <point x="219.5" y="721" type="line"/>
      <point x="219.5" y="-205" type="line"/>
    </contour>
  </outline>
</glyph>
<glyph name="S" format="2">
  <advance width="800" height="800"/>
  <unicode hex="0053"/>
  <outline>
    <contour>
      <point x="113" y="819" type="line"/>
      <point x="687" y="819" type="line"/>
      <point x="687" y="441" type="line"/>
      <point x="589" y="441" type="line"/>
      <point x="589" y="721" type="line"/>
      <point x="211" y="721" type="line"/>
      <point x="211" y="274" type="line"/>
      <point x="505" y="274" type="line"/>
      <point x="505" y="-205" type="line"/>
      <point x="113" y="-205" type="line"/>
      <point x="113" y="22" type="line"/>
      <point x="211" y="22" type="line"/>
      <point x="211" y="-107" type="line"/>
      <point x="406" y="-107" type="line"/>
      <point x="406" y="176" type="line"/>
      <point x="113" y="176" type="line"/>
    </contour>
  </outline>
</glyph>
<glyph name="T" format="2">
  <advance width="800" height="800"/>
  <unicode hex="0054"/>
  <outline>
    <contour>
      <point x="90.5" y="392" type="line"/>
      <point x="90.5" y="819" type="line"/>
      <point x="709.5" y="819" type="line"/>
      <point x="709.5" y="392" type="line"/>
      <point x="611.5" y="392" type="line"/>
      <point x="611.5" y="721" type="line"/>
      <point x="441.5" y="721" type="line"/>
      <point x="442.5" y="-205" type="line"/>
      <point x="344.5" y="-205" type="line"/>
      <point x="344.5" y="721" type="line"/>
      <point x="187.5" y="721" type="line"/>
      <point x="188.5" y="392" type="line"/>
    </contour>
  </outline>
</glyph>
<glyph name="U" format="2">
  <advance width="381" height="381"/>
  <unicode hex="0055"/>
  <outline>
    <contour>
      <point x="-112" y="819" type="line"/>
      <point x="-14" y="819" type="line"/>
      <point x="-14" y="-107" type="line"/>
      <point x="395" y="-107" type="line"/>
      <point x="395" y="819" type="line"/>
      <point x="493" y="819" type="line"/>
      <point x="493" y="-205" type="line"/>
      <point x="-112" y="-205" type="line"/>
    </contour>
  </outline>
</glyph>
<glyph name="V" format="2">
  <advance width="800" height="800"/>
  <unicode hex="0056"/>
  <outline>
    <contour>
      <point x="346.75" y="-205" type="line"/>
      <point x="42.75" y="819" type="line"/>
      <point x="184.75" y="819" type="line"/>
      <point x="430.75" y="-50" type="line"/>
      <point x="364.25" y="-49" type="line"/>
      <point x="630.25" y="820" type="line"/>
      <point x="757.25" y="820" type="line"/>
      <point x="452.25" y="-205" type="line"/>
    </contour>
  </outline>
</glyph>
<glyph name="W" format="2">
  <advance width="800" height="800"/>
  <unicode hex="0057"/>
  <outline>
    <contour>
      <point x="67" y="819" type="line"/>
      <point x="165" y="819" type="line"/>
      <point x="165" y="-107" type="line"/>
      <point x="358" y="-107" type="line"/>
      <point x="358" y="819" type="line"/>
      <point x="456" y="819" type="line"/>
      <point x="456" y="-106" type="line"/>
      <point x="635" y="-107" type="line"/>
      <point x="635" y="819" type="line"/>
      <point x="733" y="819" type="line"/>
      <point x="733" y="-205" type="line"/>
      <point x="67" y="-205" type="line"/>
    </contour>
  </outline>
</glyph>
<glyph name="X" format="2">
  <advance width="800" height="800"/>
  <unicode hex="0058"/>
  <outline>
    <contour>
      <point x="156" y="735" type="line"/>
      <point x="239" y="822" type="line"/>
      <point x="407.5" y="419" type="line"/>
      <point x="561" y="823" type="line"/>
      <point x="644" y="736" type="line"/>
      <point x="491.5" y="331" type="line"/>
      <point x="691" y="-114" type="line"/>
      <point x="608" y="-200" type="line"/>
      <point x="407.5" y="244" type="line"/>
      <point x="191" y="-198" type="line"/>
      <point x="109" y="-112" type="line"/>
      <point x="324.5" y="331" type="line"/>
    </contour>
  </outline>
</glyph>
<glyph name="Y" format="2">
  <advance width="800" height="800"/>
  <unicode hex="0059"/>
  <outline>
    <contour>
      <point x="121.5" y="819" type="line"/>
      <point x="219.5" y="819" type="line"/>
      <point x="219.5" y="171" type="line"/>
      <point x="580.5" y="171" type="line"/>
      <point x="580.5" y="819" type="line"/>
      <point x="678.5" y="819" type="line"/>
      <point x="678.5" y="73" type="line"/>
      <point x="445.5" y="74" type="line"/>
      <point x="445.5" y="-204" type="line"/>
      <point x="350.5" y="-204" type="line"/>
      <point x="350.5" y="74" type="line"/>
      <point x="121.5" y="73" type="line"/>
    </contour>
  </outline>
</glyph>
<glyph name="Z" format="2">
  <advance width="800" height="800"/>
  <unicode hex="005A"/>
  <outline>
    <contour>
      <point x="29" y="819" type="line"/>
      <point x="771" y="819" type="line"/>
      <point x="771" y="728" type="line"/>
      <point x="525" y="353" type="line"/>
      <point x="722" y="353" type="line"/>
      <point x="722" y="257" type="line"/>
      <point x="424" y="257" type="line"/>
      <point x="177" y="-107" type="line"/>
      <point x="771" y="-107" type="line"/>
      <point x="771" y="-205" type="line"/>
      <point x="29" y="-205" type="line"/>
      <point x="29" y="-114" type="line"/>
      <point x="281" y="256" type="line"/>
      <point x="88" y="256" type="line"/>
      <point x="88" y="353" type="line"/>
      <point x="384" y="354" type="line"/>
      <point x="622" y="722" type="line"/>
      <point x="29" y="722" type="line"/>
    </contour>
  </outline>
</glyph>
<glyph name="bracketleft" format="2">
  <advance width="800" height="800"/>
  <unicode hex="005B"/>
  <outline>
    <contour>
      <point x="553" y="778" type="line"/>
      <point x="554" y="659" type="line"/>
      <point x="363" y="659" type="line"/>
      <point x="363" y="-43" type="line"/>
      <point x="556" y="-43" type="line"/>
      <point x="555" y="-162" type="line"/>
      <point x="244" y="-162" type="line"/>
      <point x="244" y="778" type="line"/>
    </contour>
  </outline>
</glyph>
<glyph name="backslash" format="2">
  <advance width="800" height="800"/>
  <unicode hex="005C"/>
  <outline>
    <contour>
      <point x="96.5" y="712" type="line"/>
      <point x="178.5" y="763" type="line"/>
      <point x="703.5" y="-100" type="line"/>
      <point x="620.5" y="-150" type="line"/>
    </contour>
  </outline>
</glyph>
<glyph name="bracketright" format="2">
  <advance width="800" height="800"/>
  <unicode hex="005D"/>
  <outline>
    <contour>
      <point x="246.5" y="784" type="line"/>
      <point x="555.5" y="784" type="line"/>
      <point x="554.5" y="-156" type="line"/>
      <point x="244.5" y="-156" type="line"/>
      <point x="245.5" y="-37" type="line"/>
      <point x="437.5" y="-37" type="line"/>
      <point x="436.5" y="665" type="line"/>
      <point x="245.5" y="665" type="line"/>
    </contour>
  </outline>
</glyph>
<glyph name="asciicircum" format="2">
  <advance width="800" height="800"/>
  <unicode hex="005E"/>
  <outline>
    <contour>
      <point x="354" y="819" type="line"/>
      <point x="488" y="819" type="line"/>
      <point x="613" y="515" type="line"/>
      <point x="490" y="515" type="line"/>
      <point x="410" y="680" type="line"/>
      <point x="318" y="515" type="line"/>
      <point x="187" y="515" type="line"/>
    </contour>
  </outline>
</glyph>
<glyph name="underscore" format="2">
  <advance width="800" height="800"/>
  <unicode hex="005F"/>
  <outline>
    <contour>
      <point x="173.5" y="-108" type="line"/>
      <point x="626.5" y="-107" type="line"/>
      <point x="626.5" y="-205" type="line"/>
      <point x="173.5" y="-206" type="line"/>
    </contour>
  </outline>
</glyph>
<glyph name="grave" format="2">
  <advance width="800" height="800"/>
  <unicode hex="0060"/>
  <outline>
    <contour>
      <point x="328.5" y="788" type="line"/>
      <point x="380.5" y="818" type="line"/>
      <point x="471.5" y="657" type="line"/>
      <point x="419.5" y="628" type="line"/>
    </contour>
  </outline>
</glyph>
<glyph name="a" format="2">
  <advance width="800" height="800"/>
  <unicode hex="0061"/>
  <outline>
    <contour>
      <point x="169" y="242" type="line"/>
      <point x="533" y="243" type="line"/>
      <point x="533" y="146" type="line"/>
      <point x="269" y="145" type="line"/>
      <point x="269" y="-91" type="line"/>
      <point x="530" y="-92" type="line"/>
      <point x="532" y="324" type="line"/>
      <point x="630" y="324" type="line"/>
      <point x="631" y="-205" type="line"/>
      <point x="553" y="-205" type="line" smooth="yes"/>
      <point x="533" y="-205" type="line"/>
      <point x="533" y="-188" type="line"/>
      <point x="169" y="-187" type="line"/>
      <point x="169.162" y="-95" type="line" smooth="yes"/>
      <point x="169.003" y="236" type="line" smooth="yes"/>
    </contour>
  </outline>
</glyph>
<glyph name="b" format="2">
  <advance width="800" height="800"/>
  <unicode hex="0062"/>
  <outline>
    <contour>
      <point x="162.5" y="-205" type="curve"/>
      <point x="162.5" y="136.333"/>
      <point x="162.5" y="477.667"/>
      <point x="162.5" y="819" type="curve"/>
      <point x="195.167" y="819"/>
      <point x="227.833" y="819"/>
      <point x="260.5" y="819" type="curve"/>
      <point x="260.5" y="663.667"/>
      <point x="260.5" y="508.333"/>
      <point x="260.5" y="353" type="curve"/>
      <point x="569.167" y="353"/>
      <point x="328.833" y="353"/>
      <point x="637.5" y="353" type="curve"/>
      <point x="637.5" y="167"/>
      <point x="637.5" y="-19"/>
      <point x="637.5" y="-205" type="curve"/>
      <point x="296.167" y="-205"/>
      <point x="503.833" y="-205"/>
    </contour>
    <contour>
      <point x="539.5" y="-106" type="curve"/>
      <point x="539.5" y="15"/>
      <point x="539.5" y="136"/>
      <point x="539.5" y="257" type="curve"/>
      <point x="263.5" y="257"/>
      <point x="536.5" y="257"/>
      <point x="260.5" y="257" type="curve"/>
      <point x="260.5" y="136"/>
      <point x="260.5" y="15"/>
      <point x="260.5" y="-106" type="curve"/>
      <point x="536.5" y="-106"/>
      <point x="263.5" y="-106"/>
    </contour>
  </outline>
</glyph>
<glyph name="c" format="2">
  <advance width="800" height="800"/>
  <unicode hex="0063"/>
  <outline>
    <contour>
      <point x="136.5" y="-205" type="curve"/>
      <point x="136.5" y="10.667"/>
      <point x="136.5" y="226.333"/>
      <point x="136.5" y="442" type="curve"/>
      <point x="477.833" y="442"/>
      <point x="322.167" y="442"/>
      <point x="663.5" y="442" type="curve"/>
      <point x="663.5" y="396"/>
      <point x="663.5" y="350"/>
      <point x="663.5" y="304" type="curve"/>
      <point x="630.5" y="304"/>
      <point x="597.5" y="304"/>
      <point x="564.5" y="304" type="curve"/>
      <point x="564.5" y="317.333"/>
      <point x="564.5" y="330.667"/>
      <point x="564.5" y="344" type="curve"/>
      <point x="288.833" y="344"/>
      <point x="510.167" y="344"/>
      <point x="234.5" y="344" type="curve"/>
      <point x="234.5" y="194"/>
      <point x="234.5" y="44"/>
      <point x="234.5" y="-106" type="curve"/>
      <point x="510.167" y="-106"/>
      <point x="288.833" y="-106"/>
      <point x="564.5" y="-106" type="curve"/>
      <point x="564.5" y="-87.667"/>
      <point x="564.5" y="-69.333"/>
      <point x="564.5" y="-51" type="curve"/>
      <point x="597.5" y="-51"/>
      <point x="630.5" y="-51"/>
      <point x="663.5" y="-51" type="curve"/>
      <point x="663.5" y="-102.333"/>
      <point x="663.5" y="-153.667"/>
      <point x="663.5" y="-205" type="curve"/>
      <point x="322.167" y="-205"/>
      <point x="477.833" y="-205"/>
    </contour>
  </outline>
</glyph>
<glyph name="d" format="2">
  <advance width="800" height="800"/>
  <unicode hex="0064"/>
  <outline>
    <contour>
      <point x="590" y="417" type="curve"/>
      <point x="590" y="551"/>
      <point x="590" y="685"/>
      <point x="590" y="819" type="curve"/>
      <point x="623" y="819"/>
      <point x="656" y="819"/>
      <point x="689" y="819" type="curve"/>
      <point x="689" y="477.667"/>
      <point x="689" y="136.333"/>
      <point x="689" y="-205" type="curve"/>
      <point x="347.667" y="-205"/>
      <point x="452.333" y="-205"/>
      <point x="111" y="-205" type="curve"/>
      <point x="111" y="2.33301"/>
      <point x="111" y="209.667"/>
      <point x="111" y="417" type="curve"/>
      <point x="419.333" y="417"/>
      <point x="281.667" y="417"/>
    </contour>
    <contour>
      <point x="590" y="-106" type="curve"/>
      <point x="590" y="35.333"/>
      <point x="590" y="176.667"/>
      <point x="590" y="318" type="curve"/>
      <point x="314.333" y="318"/>
      <point x="484.667" y="318"/>
      <point x="209" y="318" type="curve"/>
      <point x="209" y="176.667"/>
      <point x="209" y="35.333"/>
      <point x="209" y="-106" type="curve"/>
      <point x="484.667" y="-106"/>
      <point x="314.333" y="-106"/>
    </contour>
  </outline>
</glyph>
<glyph name="e" format="2">
  <advance width="800" height="800"/>
  <unicode hex="0065"/>
  <outline>
    <contour>
      <point x="542.811" y="74" type="line" smooth="yes"/>
      <point x="542.811" y="111" type="line" smooth="yes"/>
      <point x="543.189" y="201" type="line"/>
      <point x="643.189" y="297" type="line"/>
      <point x="642.811" y="15" type="line"/>
      <point x="545.811" y="15" type="line"/>
      <point x="254.811" y="15" type="line"/>
      <point x="253.811" y="-107" type="line"/>
      <point x="544.811" y="-107" type="line"/>
      <point x="543.811" y="-51" type="line"/>
      <point x="641.811" y="-51" type="line"/>
      <point x="640.811" y="-205" type="line"/>
      <point x="156.811" y="-205" type="line"/>
      <point x="157.189" y="299" type="line"/>
      <point x="643.189" y="297" type="line"/>
      <point x="543.189" y="201" type="line"/>
      <point x="534.811" y="201" type="line" smooth="yes"/>
      <point x="506.189" y="201" type="line" smooth="yes"/>
      <point x="255.189" y="201" type="line"/>
      <point x="254.811" y="73" type="line"/>
      <point x="255.811" y="73.1621" type="line" smooth="yes"/>
    </contour>
  </outline>
</glyph>
<glyph name="f" format="2">
  <advance width="800" height="800"/>
  <unicode hex="0066"/>
  <outline>
    <contour>
      <point x="213.5" y="-205" type="curve"/>
      <point x="213.5" y="613" type="line"/>
      <point x="358.166" y="613"/>
      <point x="441.118" y="614.002"/>
      <point x="585.5" y="615" type="curve"/>
      <point x="585.5" y="457.334"/>
      <point x="586.496" y="368.376"/>
      <point x="586.5" y="211" type="curve"/>
      <point x="548.5" y="211"/>
      <point x="526.5" y="210"/>
      <point x="488.5" y="210" type="curve"/>
      <point x="488.5" y="517" type="line"/>
      <point x="311.5" y="517" type="line"/>
      <point x="310.5" y="177" type="line"/>
      <point x="445.5" y="177" type="line"/>
      <point x="445.5" y="79" type="line"/>
      <point x="311.5" y="79" type="line"/>
      <point x="311.5" y="-205" type="line"/>
      <point x="311.5" y="-203"/>
      <point x="315.5" y="-201"/>
      <point x="313.5" y="-201" type="curve" smooth="yes"/>
      <point x="274.5" y="-201"/>
      <point x="252.5" y="-203"/>
    </contour>
  </outline>
</glyph>
<glyph name="g" format="2">
  <advance width="800" height="800"/>
  <unicode hex="0067"/>
  <outline>
    <contour>
      <point x="746.25" y="-106" type="line"/>
      <point x="746.25" y="-205" type="line"/>
      <point x="526.75" y="-205" type="line"/>
      <point x="526.75" y="-97" type="line"/>
      <point x="53.75" y="-97" type="line"/>
      <point x="53.75" y="340" type="line"/>
      <point x="150.75" y="340" type="line"/>
      <point x="150.75" y="1" type="line"/>
      <point x="526.75" y="1" type="line"/>
      <point x="526.75" y="340" type="line"/>
      <point x="623.75" y="340" type="line"/>
      <point x="624.75" y="-106" type="line"/>
    </contour>
    <contour>
      <point x="53.75" y="438" type="line"/>
      <point x="624.75" y="438" type="line"/>
      <point x="623.75" y="340" type="line"/>
      <point x="53.75" y="340" type="line"/>
    </contour>
  </outline>
</glyph>
<glyph name="h" format="2">
  <advance width="800" height="800"/>
  <unicode hex="0068"/>
  <outline>
    <contour>
      <point x="165.75" y="819" type="line"/>
      <point x="264.75" y="819" type="line"/>
      <point x="263.75" y="212" type="line"/>
      <point x="634.25" y="212" type="line"/>
      <point x="634.25" y="-205" type="line"/>
      <point x="535.25" y="-205" type="line"/>
      <point x="535.25" y="113" type="line"/>
      <point x="212.25" y="113"/>
      <point x="586.75" y="114"/>
      <point x="263.75" y="114" type="curve"/>
      <point x="263.75" y="-205" type="line"/>
      <point x="165.75" y="-205" type="line"/>
    </contour>
  </outline>
</glyph>
<glyph name="i" format="2">
  <advance width="800" height="800"/>
  <unicode hex="0069"/>
  <outline>
    <contour>
      <point x="159" y="-106" type="line"/>
      <point x="353" y="-106" type="line"/>
      <point x="353" y="478" type="line"/>
      <point x="451" y="478" type="line"/>
      <point x="451" y="-106" type="line"/>
      <point x="641" y="-106" type="line"/>
      <point x="641" y="-205" type="line"/>
      <point x="159" y="-205" type="line"/>
    </contour>
    <contour>
      <point x="354" y="819" type="line"/>
      <point x="451" y="819" type="line"/>
      <point x="451" y="623" type="line"/>
      <point x="354" y="623" type="line"/>
    </contour>
  </outline>
</glyph>
<glyph name="j" format="2">
  <advance width="800" height="800"/>
  <unicode hex="006A"/>
  <outline>
    <contour>
      <point x="401" y="515" type="curve"/>
      <point x="433.667" y="515"/>
      <point x="466.333" y="515"/>
      <point x="499" y="515" type="curve"/>
      <point x="499" y="-205" type="line"/>
      <point x="301" y="-205" type="line"/>
      <point x="301" y="-105" type="line"/>
      <point x="401" y="-105" type="line"/>
      <point x="401" y="101.667"/>
      <point x="401" y="308.333"/>
    </contour>
    <contour>
      <point x="402" y="819" type="line"/>
      <point x="499" y="819" type="line"/>
      <point x="499" y="628" type="line"/>
      <point x="402" y="628" type="line"/>
    </contour>
  </outline>
</glyph>
<glyph name="k" format="2">
  <advance width="800" height="800"/>
  <unicode hex="006B"/>
  <outline>
    <contour>
      <point x="196" y="819" type="line"/>
      <point x="294" y="819" type="line"/>
      <point x="294" y="421" type="line"/>
      <point x="506" y="421" type="line"/>
      <point x="506" y="540" type="line"/>
      <point x="604" y="540" type="line"/>
      <point x="604" y="323" type="line"/>
      <point x="426" y="323" type="line"/>
      <point x="426" y="74" type="line"/>
      <point x="328" y="74" type="line"/>
      <point x="328" y="323" type="line"/>
      <point x="294" y="323" type="line"/>
      <point x="294" y="-205" type="line"/>
      <point x="196" y="-205" type="line"/>
    </contour>
  </outline>
</glyph>
<glyph name="l" format="2">
  <advance width="800" height="800"/>
  <unicode hex="006C"/>
  <outline>
    <contour>
      <point x="285" y="819" type="line"/>
      <point x="383" y="819" type="line"/>
      <point x="383" y="-107" type="line"/>
      <point x="515" y="-107" type="line"/>
      <point x="515" y="-205" type="line"/>
      <point x="285" y="-205" type="line"/>
    </contour>
  </outline>
</glyph>
<glyph name="m" format="2">
  <advance width="800" height="800"/>
  <unicode hex="006D"/>
  <outline>
    <contour>
      <point x="-22" y="173" type="line"/>
      <point x="822" y="172" type="line"/>
      <point x="822" y="-205" type="line"/>
      <point x="596" y="-205" type="line"/>
      <point x="596" y="-107" type="line"/>
      <point x="724" y="-107" type="line"/>
      <point x="724" y="74" type="line"/>
      <point x="451" y="74" type="line"/>
      <point x="452" y="-205" type="line"/>
      <point x="354" y="-205" type="line"/>
      <point x="354" y="73" type="line"/>
      <point x="76" y="74" type="line"/>
      <point x="75" y="-106" type="line"/>
      <point x="204" y="-106" type="line"/>
      <point x="204" y="-204" type="line"/>
      <point x="-22" y="-204" type="line"/>
    </contour>
  </outline>
</glyph>
<glyph name="n" format="2">
  <advance width="800" height="800"/>
  <unicode hex="006E"/>
  <outline>
    <contour>
      <point x="141.5" y="-205" type="line"/>
      <point x="141.5" y="354" type="line"/>
      <point x="238.5" y="354" type="line"/>
      <point x="239.5" y="259" type="line"/>
      <point x="658.5" y="259" type="line"/>
      <point x="658.5" y="-107" type="line"/>
      <point x="658.5" y="-205" type="line"/>
      <point x="560.5" y="-205" type="line"/>
      <point x="560.5" y="160" type="line"/>
      <point x="238.5" y="160" type="line"/>
      <point x="238.5" y="-205" type="line"/>
    </contour>
  </outline>
</glyph>
<glyph name="o" format="2">
  <advance width="800" height="800"/>
  <unicode hex="006F"/>
  <outline>
    <contour>
      <point x="133.5" y="363" type="line"/>
      <point x="666.5" y="363" type="line"/>
      <point x="666.5" y="-205" type="line"/>
      <point x="133.5" y="-205" type="line"/>
      <point x="133.5" y="265" type="line"/>
      <point x="231.5" y="265" type="line"/>
      <point x="231.5" y="-107" type="line"/>
      <point x="568.5" y="-107" type="line"/>
      <point x="568.5" y="265" type="line"/>
      <point x="423.5" y="265"/>
      <point x="278.5" y="265"/>
      <point x="133.5" y="265" type="curve"/>
    </contour>
  </outline>
</glyph>
<glyph name="p" format="2">
  <advance width="800" height="800"/>
  <unicode hex="0070"/>
  <outline>
    <contour>
      <point x="114" y="494" type="line"/>
      <point x="212" y="494" type="line"/>
      <point x="212" y="438" type="line"/>
      <point x="686" y="438" type="line"/>
      <point x="686" y="23" type="line"/>
      <point x="212" y="23" type="line"/>
      <point x="212" y="-205" type="line"/>
      <point x="114" y="-205" type="line"/>
      <point x="114" y="119" type="line"/>
      <point x="212" y="122" type="line"/>
      <point x="588" y="122" type="line"/>
      <point x="588" y="340" type="line"/>
      <point x="210" y="339" type="line"/>
      <point x="212" y="122" type="line"/>
      <point x="114" y="119" type="line"/>
    </contour>
  </outline>
</glyph>
<glyph name="q" format="2">
  <advance width="800" height="800"/>
  <unicode hex="0071"/>
  <outline>
    <contour>
      <point x="0" y="438" type="line"/>
      <point x="474" y="438" type="line"/>
      <point x="474" y="494" type="line"/>
      <point x="572" y="494" type="line"/>
      <point x="572" y="-107" type="line"/>
      <point x="800" y="-108" type="line"/>
      <point x="800" y="-205" type="line"/>
      <point x="474" y="-205" type="line"/>
      <point x="474" y="23" type="line"/>
      <point x="0" y="23" type="line"/>
      <point x="0" y="124" type="line"/>
      <point x="98" y="122" type="line"/>
      <point x="474" y="122" type="line"/>
      <point x="474" y="340" type="line"/>
      <point x="98" y="340" type="line"/>
      <point x="98" y="122" type="line"/>
      <point x="0" y="124" type="line"/>
    </contour>
  </outline>
</glyph>
<glyph name="s" format="2">
  <advance width="800" height="800"/>
  <unicode hex="0073"/>
  <outline>
    <contour>
      <point x="68.5" y="360" type="line"/>
      <point x="731.5" y="360" type="line"/>
      <point x="730.5" y="189" type="line"/>
      <point x="632.5" y="188" type="line"/>
      <point x="633.5" y="262" type="line"/>
      <point x="164.5" y="262" type="line"/>
      <point x="164.5" y="155" type="line"/>
      <point x="548.5" y="155" type="line"/>
      <point x="549.5" y="-205" type="line"/>
      <point x="68.5" y="-205" type="line"/>
      <point x="68.5" y="-11" type="line"/>
      <point x="166.5" y="-11" type="line"/>
      <point x="166.5" y="-107" type="line"/>
      <point x="451.5" y="-107" type="line"/>
      <point x="451.5" y="57" type="line"/>
      <point x="68.5" y="57" type="line"/>
    </contour>
  </outline>
</glyph>
<glyph name="t" format="2">
  <advance width="800" height="800"/>
  <unicode hex="0074"/>
  <outline>
    <contour>
      <point x="361" y="575" type="move"/>
    </contour>
    <contour>
      <point x="263" y="575" type="line"/>
      <point x="361" y="575" type="line"/>
      <point x="360" y="447" type="line"/>
      <point x="647" y="447" type="line"/>
      <point x="647" y="349" type="line"/>
      <point x="360" y="349" type="line"/>
      <point x="360" y="-108" type="line"/>
      <point x="645" y="-109" type="line"/>
      <point x="645" y="-205" type="line"/>
      <point x="263" y="-205" type="line"/>
      <point x="263" y="350" type="line"/>
      <point x="153" y="350" type="line"/>
      <point x="153" y="447" type="line"/>
      <point x="263" y="447" type="line"/>
    </contour>
  </outline>
</glyph>
<glyph name="u" format="2">
  <advance width="800" height="800"/>
  <unicode hex="0075"/>
  <outline>
    <contour>
      <point x="154" y="267" type="line"/>
      <point x="362" y="267" type="line"/>
      <point x="362" y="-108" type="line"/>
      <point x="549" y="-108" type="line"/>
      <point x="549" y="364" type="line"/>
      <point x="646" y="364" type="line"/>
      <point x="646" y="-205" type="line"/>
      <point x="264" y="-205" type="line"/>
      <point x="264" y="169" type="line"/>
      <point x="154" y="169" type="line"/>
    </contour>
  </outline>
</glyph>
<glyph name="v" format="2">
  <advance width="800" height="800"/>
  <unicode hex="0076"/>
  <outline>
    <contour>
      <point x="141" y="307" type="line"/>
      <point x="245" y="307" type="line"/>
      <point x="356" y="-52" type="line"/>
      <point x="447" y="-52" type="line"/>
      <point x="557" y="304" type="line"/>
      <point x="659" y="303" type="line"/>
      <point x="500" y="-205" type="line"/>
      <point x="302" y="-204" type="line"/>
    </contour>
  </outline>
</glyph>
<glyph name="w" format="2">
  <advance width="800" height="800"/>
  <unicode hex="0077"/>
  <outline>
    <contour>
      <point x="7" y="307" type="line"/>
      <point x="201" y="307" type="line"/>
      <point x="201" y="223" type="line"/>
      <point x="104" y="223" type="line"/>
      <point x="105" y="-107" type="line"/>
      <point x="350" y="-107" type="line"/>
      <point x="350" y="307" type="line"/>
      <point x="448" y="307" type="line"/>
      <point x="448" y="-107" type="line"/>
      <point x="695" y="-106" type="line"/>
      <point x="695" y="224" type="line"/>
      <point x="597" y="224" type="line"/>
      <point x="597" y="308" type="line"/>
      <point x="793" y="308" type="line"/>
      <point x="793" y="-204" type="line"/>
      <point x="7" y="-205" type="line"/>
    </contour>
  </outline>
</glyph>
<glyph name="x" format="2">
  <advance width="800" height="800"/>
  <unicode hex="0078"/>
  <outline>
    <contour>
      <point x="164.5" y="254" type="line"/>
      <point x="233.5" y="325" type="line"/>
      <point x="411.5" y="147" type="line"/>
      <point x="579.5" y="315" type="line"/>
      <point x="648.5" y="246" type="line"/>
      <point x="481.5" y="78" type="line"/>
      <point x="669.5" y="-110" type="line"/>
      <point x="600.5" y="-178" type="line"/>
      <point x="412.5" y="9" type="line"/>
      <point x="199.5" y="-203" type="line"/>
      <point x="130.5" y="-135" type="line"/>
      <point x="342.5" y="78" type="line"/>
    </contour>
  </outline>
</glyph>
<glyph name="y" format="2">
  <advance width="800" height="800"/>
  <unicode hex="0079"/>
  <outline>
    <contour>
      <point x="155" y="530" type="line"/>
      <point x="359" y="530" type="line"/>
      <point x="360" y="155" type="line"/>
      <point x="547" y="155" type="line"/>
      <point x="547" y="530" type="line"/>
      <point x="645" y="530" type="line"/>
      <point x="645" y="-205" type="line"/>
      <point x="155" y="-205" type="line"/>
      <point x="155" y="-107" type="line"/>
      <point x="547" y="-107" type="line"/>
      <point x="547" y="58" type="line"/>
      <point x="262" y="58" type="line"/>
      <point x="262" y="432" type="line"/>
      <point x="155" y="432" type="line"/>
    </contour>
  </outline>
</glyph>
<glyph name="z" format="2">
  <advance width="800" height="800"/>
  <unicode hex="007A"/>
  <outline>
    <contour>
      <point x="137.5" y="344" type="line"/>
      <point x="662.5" y="344" type="line"/>
      <point x="662.5" y="253" type="line"/>
      <point x="538.5" y="134" type="line"/>
      <point x="597.5" y="134" type="line"/>
      <point x="597.5" y="37" type="line"/>
      <point x="436.5" y="37" type="line"/>
      <point x="285.5" y="-107" type="line"/>
      <point x="662.5" y="-107" type="line"/>
      <point x="662.5" y="-205" type="line"/>
      <point x="137.5" y="-205" type="line"/>
      <point x="137.5" y="-115" type="line"/>
      <point x="295.5" y="37" type="line"/>
      <point x="215.5" y="37" type="line"/>
      <point x="215.5" y="135" type="line"/>
      <point x="397.5" y="135" type="line"/>
      <point x="513.5" y="246" type="line"/>
      <point x="137.5" y="247" type="line"/>
    </contour>
  </outline>
</glyph>
<glyph name="braceleft" format="2">
  <advance width="800" height="800"/>
  <unicode hex="007B"/>
  <outline>
    <contour>
      <point x="189" y="395" type="line"/>
      <point x="300" y="395" type="line"/>
      <point x="300" y="778" type="line"/>
      <point x="610" y="778" type="line"/>
      <point x="610" y="659" type="line"/>
      <point x="419" y="660" type="line"/>
      <point x="418" y="-44" type="line"/>
      <point x="611" y="-44" type="line"/>
      <point x="611" y="-162" type="line"/>
      <point x="300" y="-162" type="line"/>
      <point x="300" y="204" type="line"/>
      <point x="190" y="204" type="line"/>
    </contour>
  </outline>
</glyph>
<glyph name="bar" format="2">
  <advance width="800" height="800"/>
  <unicode hex="007C"/>
  <outline>
    <contour>
      <point x="341" y="772" type="line"/>
      <point x="459" y="772" type="line"/>
      <point x="459" y="-168" type="line"/>
      <point x="341" y="-168" type="line"/>
    </contour>
  </outline>
</glyph>
<glyph name="braceright" format="2">
  <advance width="800" height="800"/>
  <unicode hex="007D"/>
  <outline>
    <contour>
      <point x="189" y="-38" type="line"/>
      <point x="381" y="-37" type="line"/>
      <point x="381" y="665" type="line"/>
      <point x="190" y="666" type="line"/>
      <point x="190" y="784" type="line"/>
      <point x="500" y="784" type="line"/>
      <point x="499" y="402" type="line"/>
      <point x="611" y="402" type="line"/>
      <point x="611" y="210" type="line"/>
      <point x="500" y="210" type="line"/>
      <point x="500" y="-156" type="line"/>
      <point x="189" y="-156" type="line"/>
    </contour>
  </outline>
</glyph>
<glyph name="asciitilde" format="2">
  <advance width="800" height="800"/>
  <unicode hex="007E"/>
  <outline>
    <contour>
      <point x="173.5" y="473" type="line"/>
      <point x="326.5" y="474" type="line"/>
      <point x="327.5" y="376" type="line"/>
      <point x="626.5" y="376" type="line"/>
      <point x="626.5" y="182" type="line"/>
      <point x="473.5" y="182" type="line"/>
      <point x="473.5" y="279" type="line"/>
      <point x="173.5" y="278" type="line"/>
    </contour>
  </outline>
</glyph>
<glyph name="uni00A0" format="2">
  <advance width="1024" height="1024"/>
  <unicode hex="00A0"/>
  <outline>
    <contour>
      <point x="414" y="272" type="move" smooth="yes"/>
      <point x="542" y="239"/>
      <point x="620" y="228"/>
      <point x="542" y="238" type="curve" smooth="yes"/>
    </contour>
  </outline>
</glyph>
